<?xml version="1.0" encoding="UTF-8"?>
<svg width="1200" height="630" viewBox="0 0 1200 630" xmlns="http://www.w3.org/2000/svg" role="img" aria-label="Phoenix Creek Supply">
  <defs>
    <linearGradient id="bg" x1="0" x2="1" y1="0" y2="1">
      <stop offset="0%" stop-color="#0f1724" />
      <stop offset="60%" stop-color="#04202a" />
      <stop offset="100%" stop-color="#083047" />
    </linearGradient>
    <filter id="soft" x="-20%" y="-20%" width="140%" height="140%">
      <feGaussianBlur stdDeviation="2" />
    </filter>
  </defs>

  <!-- Background -->
  <rect width="1200" height="630" fill="url(#bg)" />

  <!-- Decorative hills -->
  <g opacity="0.12" transform="translate(0,60)" fill="#bfe6d8" filter="url(#soft)">
    <path d="M0 420 C200 320 400 360 600 420 C800 480 1000 400 1200 420 L1200 630 L0 630 Z" />
  </g>

  <!-- Logo-ish mark (simple creek + pebble) -->
  <g transform="translate(72,120)" fill="none" stroke="#e6f9f1" stroke-width="3">
    <path d="M0 240 C120 180 260 210 420 240 C560 265 760 245 980 180" stroke-opacity="0.9" />
    <circle cx="1020" cy="190" r="8" fill="#fef3c7" stroke="none" />
  </g>

  <!-- Main title -->
  <text x="80" y="220" fill="#e6eef8" font-family="Inter, Arial, sans-serif" font-weight="700" font-size="56">Phoenix Creek Supply</text>

  <!-- Subtitle -->
  <text x="80" y="270" fill="#cbd8e6" font-family="Inter, Arial, sans-serif" font-weight="500" font-size="20">Practical gear, guides, and digital kits for prospectors</text>

  <!-- Feature badges -->
  <g transform="translate(80,320)" fill="#e6eef8" font-family="Inter, Arial, sans-serif" font-size="14">
    <rect x="0" y="-24" width="220" height="36" rx="8" fill="#0ea5a5" />
    <text x="16" y="0" fill="#04202a" font-weight="700">Shop gear</text>
    <rect x="240" y="-24" width="300" height="36" rx="8" fill="#f59e0b" />
  <text x="256" y="0" fill="#071018" font-weight="700">Field guides &amp; digital kits</text>
  </g>

  <!-- Right column visual (placeholder crate) -->
  <g transform="translate(760,160)">
    <rect x="0" y="0" width="320" height="200" rx="12" fill="#04202a" opacity="0.85" />
    <rect x="14" y="14" width="292" height="172" rx="8" fill="#083047" />
    <text x="26" y="70" fill="#9fb8ff" font-family="Inter, Arial, sans-serif" font-size="22" font-weight="700">Digital Kits</text>
    <text x="26" y="100" fill="#cbd8e6" font-family="Inter, Arial, sans-serif" font-size="14">AI Legacy • Stoic Guide • Prospecting Pack</text>
  </g>

  <!-- Footer small text -->
  <text x="80" y="590" fill="#7f98b3" font-family="Inter, Arial, sans-serif" font-size="12">phoenixcreeksupply.com</text>

</svg>
